<?xml version="1.0" encoding="UTF-8" standalone="no"?><svg xmlns="http://www.w3.org/2000/svg" xmlns:xlink="http://www.w3.org/1999/xlink" contentStyleType="text/css" height="897px" preserveAspectRatio="none" style="width:207px;height:897px;background:#FFFFFF;" version="1.1" viewBox="0 0 207 897" width="207px" zoomAndPan="magnify"><defs/><g><ellipse cx="103.5" cy="20" fill="#222222" rx="10" ry="10" style="stroke:#222222;stroke-width:1.0;"/><rect fill="none" height="190.2031" style="stroke:#000000;stroke-width:1.5;" width="185" x="11" y="40"/><path d="M129,40 L129,49.2969 L119,59.2969 L11,59.2969 " fill="none" style="stroke:#000000;stroke-width:1.5;"/><text fill="#000000" font-family="sans-serif" font-size="14" lengthAdjust="spacing" textLength="108" x="14" y="53.9951">merge scenario</text><rect fill="#F1F1F1" height="33.9688" rx="12.5" ry="12.5" style="stroke:#181818;stroke-width:0.5;" width="113" x="47" y="76.2969"/><text fill="#000000" font-family="sans-serif" font-size="12" lengthAdjust="spacing" textLength="93" x="57" y="97.4355">get className</text><rect fill="#F1F1F1" height="33.9688" rx="12.5" ry="12.5" style="stroke:#181818;stroke-width:0.5;" width="165" x="21" y="130.2656"/><text fill="#000000" font-family="sans-serif" font-size="12" lengthAdjust="spacing" textLength="145" x="31" y="151.4043">get entry point method</text><rect fill="#F1F1F1" height="33.9688" rx="12.5" ry="12.5" style="stroke:#181818;stroke-width:0.5;" width="133" x="37" y="184.2344"/><text fill="#000000" font-family="sans-serif" font-size="12" lengthAdjust="spacing" textLength="113" x="47" y="205.373">get lines changed</text><rect fill="none" height="298.1406" style="stroke:#000000;stroke-width:1.5;" width="174" x="16.5" y="240.2031"/><path d="M151.5,240.2031 L151.5,249.5 L141.5,259.5 L16.5,259.5 " fill="none" style="stroke:#000000;stroke-width:1.5;"/><text fill="#000000" font-family="sans-serif" font-size="14" lengthAdjust="spacing" textLength="125" x="19.5" y="254.1982">soot configuration</text><rect fill="#F1F1F1" height="33.9688" rx="12.5" ry="12.5" style="stroke:#181818;stroke-width:0.5;" width="154" x="26.5" y="276.5"/><text fill="#000000" font-family="sans-serif" font-size="12" lengthAdjust="spacing" textLength="134" x="36.5" y="297.6387">Jimple representation</text><rect fill="#F1F1F1" height="33.9688" rx="12.5" ry="12.5" style="stroke:#181818;stroke-width:0.5;" width="136" x="35.5" y="330.4688"/><text fill="#000000" font-family="sans-serif" font-size="12" lengthAdjust="spacing" textLength="116" x="45.5" y="351.6074">callGraph(): SPARK</text><rect fill="#F1F1F1" height="33.9688" rx="12.5" ry="12.5" style="stroke:#181818;stroke-width:0.5;" width="111" x="48" y="384.4375"/><text fill="#000000" font-family="sans-serif" font-size="12" lengthAdjust="spacing" textLength="91" x="58" y="405.5762">setEntryPoints</text><rect fill="#F1F1F1" height="33.9688" rx="12.5" ry="12.5" style="stroke:#181818;stroke-width:0.5;" width="139" x="34" y="438.4063"/><text fill="#000000" font-family="sans-serif" font-size="12" lengthAdjust="spacing" textLength="119" x="44" y="459.5449">use-original-names</text><rect fill="#F1F1F1" height="33.9688" rx="12.5" ry="12.5" style="stroke:#181818;stroke-width:0.5;" width="110" x="48.5" y="492.375"/><text fill="#000000" font-family="sans-serif" font-size="12" lengthAdjust="spacing" textLength="90" x="58.5" y="513.5137">others configs</text><rect fill="none" height="244.1719" style="stroke:#000000;stroke-width:1.5;" width="169" x="19" y="548.3438"/><path d="M93,548.3438 L93,557.6406 L83,567.6406 L19,567.6406 " fill="none" style="stroke:#000000;stroke-width:1.5;"/><text fill="#000000" font-family="sans-serif" font-size="14" lengthAdjust="spacing" textLength="64" x="22" y="562.3389">buildPDG</text><rect fill="#F1F1F1" height="33.9688" rx="12.5" ry="12.5" style="stroke:#181818;stroke-width:0.5;" width="66" x="70.5" y="584.6406"/><text fill="#000000" font-family="sans-serif" font-size="12" lengthAdjust="spacing" textLength="46" x="80.5" y="605.7793">buildDF</text><rect fill="#F1F1F1" height="33.9688" rx="12.5" ry="12.5" style="stroke:#181818;stroke-width:0.5;" width="67" x="70" y="638.6094"/><text fill="#000000" font-family="sans-serif" font-size="12" lengthAdjust="spacing" textLength="47" x="80" y="659.748">buildCD</text><rect fill="#F1F1F1" height="33.9688" rx="12.5" ry="12.5" style="stroke:#181818;stroke-width:0.5;" width="149" x="29" y="692.5781"/><text fill="#000000" font-family="sans-serif" font-size="12" lengthAdjust="spacing" textLength="129" x="39" y="713.7168">add def-order edges</text><rect fill="#F1F1F1" height="33.9688" rx="12.5" ry="12.5" style="stroke:#181818;stroke-width:0.5;" width="103" x="52" y="746.5469"/><text fill="#000000" font-family="sans-serif" font-size="12" lengthAdjust="spacing" textLength="83" x="62" y="767.6855">merge edges</text><rect fill="#F1F1F1" height="33.9688" rx="12.5" ry="12.5" style="stroke:#181818;stroke-width:0.5;" width="87" x="60" y="812.5156"/><text fill="#000000" font-family="sans-serif" font-size="12" lengthAdjust="spacing" textLength="67" x="70" y="833.6543">return pdg</text><ellipse cx="103.5" cy="876.4844" fill="none" rx="10" ry="10" style="stroke:#222222;stroke-width:1.5;"/><line style="stroke:#222222;stroke-width:2.5;" x1="97.3128" x2="109.6872" y1="870.2972" y2="882.6716"/><line style="stroke:#222222;stroke-width:2.5;" x1="109.6872" x2="97.3128" y1="870.2972" y2="882.6716"/><line style="stroke:#181818;stroke-width:1.0;" x1="103.5" x2="103.5" y1="110.2656" y2="130.2656"/><polygon fill="#181818" points="99.5,120.2656,103.5,130.2656,107.5,120.2656,103.5,124.2656" style="stroke:#181818;stroke-width:1.0;"/><line style="stroke:#181818;stroke-width:1.0;" x1="103.5" x2="103.5" y1="164.2344" y2="184.2344"/><polygon fill="#181818" points="99.5,174.2344,103.5,184.2344,107.5,174.2344,103.5,178.2344" style="stroke:#181818;stroke-width:1.0;"/><line style="stroke:#181818;stroke-width:1.0;" x1="103.5" x2="103.5" y1="30" y2="76.2969"/><polygon fill="#181818" points="99.5,66.2969,103.5,76.2969,107.5,66.2969,103.5,70.2969" style="stroke:#181818;stroke-width:1.0;"/><line style="stroke:#181818;stroke-width:1.0;" x1="103.5" x2="103.5" y1="310.4688" y2="330.4688"/><polygon fill="#181818" points="99.5,320.4688,103.5,330.4688,107.5,320.4688,103.5,324.4688" style="stroke:#181818;stroke-width:1.0;"/><line style="stroke:#181818;stroke-width:1.0;" x1="103.5" x2="103.5" y1="364.4375" y2="384.4375"/><polygon fill="#181818" points="99.5,374.4375,103.5,384.4375,107.5,374.4375,103.5,378.4375" style="stroke:#181818;stroke-width:1.0;"/><line style="stroke:#181818;stroke-width:1.0;" x1="103.5" x2="103.5" y1="418.4063" y2="438.4063"/><polygon fill="#181818" points="99.5,428.4063,103.5,438.4063,107.5,428.4063,103.5,432.4063" style="stroke:#181818;stroke-width:1.0;"/><line style="stroke:#181818;stroke-width:1.0;" x1="103.5" x2="103.5" y1="472.375" y2="492.375"/><polygon fill="#181818" points="99.5,482.375,103.5,492.375,107.5,482.375,103.5,486.375" style="stroke:#181818;stroke-width:1.0;"/><line style="stroke:#181818;stroke-width:1.0;" x1="103.5" x2="103.5" y1="218.2031" y2="276.5"/><polygon fill="#181818" points="99.5,266.5,103.5,276.5,107.5,266.5,103.5,270.5" style="stroke:#181818;stroke-width:1.0;"/><line style="stroke:#181818;stroke-width:1.0;" x1="103.5" x2="103.5" y1="618.6094" y2="638.6094"/><polygon fill="#181818" points="99.5,628.6094,103.5,638.6094,107.5,628.6094,103.5,632.6094" style="stroke:#181818;stroke-width:1.0;"/><line style="stroke:#181818;stroke-width:1.0;" x1="103.5" x2="103.5" y1="672.5781" y2="692.5781"/><polygon fill="#181818" points="99.5,682.5781,103.5,692.5781,107.5,682.5781,103.5,686.5781" style="stroke:#181818;stroke-width:1.0;"/><line style="stroke:#181818;stroke-width:1.0;" x1="103.5" x2="103.5" y1="726.5469" y2="746.5469"/><polygon fill="#181818" points="99.5,736.5469,103.5,746.5469,107.5,736.5469,103.5,740.5469" style="stroke:#181818;stroke-width:1.0;"/><line style="stroke:#181818;stroke-width:1.0;" x1="103.5" x2="103.5" y1="526.3438" y2="584.6406"/><polygon fill="#181818" points="99.5,574.6406,103.5,584.6406,107.5,574.6406,103.5,578.6406" style="stroke:#181818;stroke-width:1.0;"/><line style="stroke:#181818;stroke-width:1.0;" x1="103.5" x2="103.5" y1="780.5156" y2="812.5156"/><polygon fill="#181818" points="99.5,802.5156,103.5,812.5156,107.5,802.5156,103.5,806.5156" style="stroke:#181818;stroke-width:1.0;"/><line style="stroke:#181818;stroke-width:1.0;" x1="103.5" x2="103.5" y1="846.4844" y2="866.4844"/><polygon fill="#181818" points="99.5,856.4844,103.5,866.4844,107.5,856.4844,103.5,860.4844" style="stroke:#181818;stroke-width:1.0;"/><!--MD5=[f294b92687f2a3fd9adb30424a263e6e]
@startuml PDGAlgorithm

start
group merge scenario 
    :get className;
    :get entry point method;
    :get lines changed;
end group

group soot configuration 
   :Jimple representation;
   :callGraph(): SPARK;
   :setEntryPoints;
   :use-original-names;
   :others configs;
end group

group buildPDG
    :buildDF;
    :buildCD;
    :add def-order edges;
    :merge edges;
end group
:return pdg;

end
@enduml

PlantUML version 1.2022.7(Mon Aug 22 14:01:30 BRT 2022)
(GPL source distribution)
Java Runtime: OpenJDK Runtime Environment
JVM: OpenJDK 64-Bit Server VM
Default Encoding: UTF-8
Language: en
Country: US
--></g></svg>