<?xml version="1.0" encoding="UTF-8" standalone="no"?><svg xmlns="http://www.w3.org/2000/svg" xmlns:xlink="http://www.w3.org/1999/xlink" contentStyleType="text/css" height="1361px" preserveAspectRatio="none" style="width:366px;height:1361px;background:#FFFFFF;" version="1.1" viewBox="0 0 366 1361" width="366px" zoomAndPan="magnify"><defs/><g><ellipse cx="192" cy="20" fill="#222222" rx="10" ry="10" style="stroke:#222222;stroke-width:1.0;"/><rect fill="none" height="190.2031" style="stroke:#000000;stroke-width:1.5;" width="185" x="99.5" y="40"/><path d="M217.5,40 L217.5,49.2969 L207.5,59.2969 L99.5,59.2969 " fill="none" style="stroke:#000000;stroke-width:1.5;"/><text fill="#000000" font-family="sans-serif" font-size="14" lengthAdjust="spacing" textLength="108" x="102.5" y="53.9951">merge scenario</text><rect fill="#F1F1F1" height="33.9688" rx="12.5" ry="12.5" style="stroke:#181818;stroke-width:0.5;" width="113" x="135.5" y="76.2969"/><text fill="#000000" font-family="sans-serif" font-size="12" lengthAdjust="spacing" textLength="93" x="145.5" y="97.4355">get className</text><rect fill="#F1F1F1" height="33.9688" rx="12.5" ry="12.5" style="stroke:#181818;stroke-width:0.5;" width="165" x="109.5" y="130.2656"/><text fill="#000000" font-family="sans-serif" font-size="12" lengthAdjust="spacing" textLength="145" x="119.5" y="151.4043">get entry point method</text><rect fill="#F1F1F1" height="33.9688" rx="12.5" ry="12.5" style="stroke:#181818;stroke-width:0.5;" width="133" x="125.5" y="184.2344"/><text fill="#000000" font-family="sans-serif" font-size="12" lengthAdjust="spacing" textLength="113" x="135.5" y="205.373">get lines changed</text><rect fill="none" height="298.1406" style="stroke:#000000;stroke-width:1.5;" width="174" x="105" y="240.2031"/><path d="M240,240.2031 L240,249.5 L230,259.5 L105,259.5 " fill="none" style="stroke:#000000;stroke-width:1.5;"/><text fill="#000000" font-family="sans-serif" font-size="14" lengthAdjust="spacing" textLength="125" x="108" y="254.1982">soot configuration</text><rect fill="#F1F1F1" height="33.9688" rx="12.5" ry="12.5" style="stroke:#181818;stroke-width:0.5;" width="154" x="115" y="276.5"/><text fill="#000000" font-family="sans-serif" font-size="12" lengthAdjust="spacing" textLength="134" x="125" y="297.6387">Jimple representation</text><rect fill="#F1F1F1" height="33.9688" rx="12.5" ry="12.5" style="stroke:#181818;stroke-width:0.5;" width="136" x="124" y="330.4688"/><text fill="#000000" font-family="sans-serif" font-size="12" lengthAdjust="spacing" textLength="116" x="134" y="351.6074">callGraph(): SPARK</text><rect fill="#F1F1F1" height="33.9688" rx="12.5" ry="12.5" style="stroke:#181818;stroke-width:0.5;" width="111" x="136.5" y="384.4375"/><text fill="#000000" font-family="sans-serif" font-size="12" lengthAdjust="spacing" textLength="91" x="146.5" y="405.5762">setEntryPoints</text><rect fill="#F1F1F1" height="33.9688" rx="12.5" ry="12.5" style="stroke:#181818;stroke-width:0.5;" width="139" x="122.5" y="438.4063"/><text fill="#000000" font-family="sans-serif" font-size="12" lengthAdjust="spacing" textLength="119" x="132.5" y="459.5449">use-original-names</text><rect fill="#F1F1F1" height="33.9688" rx="12.5" ry="12.5" style="stroke:#181818;stroke-width:0.5;" width="110" x="137" y="492.375"/><text fill="#000000" font-family="sans-serif" font-size="12" lengthAdjust="spacing" textLength="90" x="147" y="513.5137">others configs</text><rect fill="none" height="707.7334" style="stroke:#000000;stroke-width:1.5;" width="344" x="11" y="548.3438"/><path d="M75,548.3438 L75,557.6406 L65,567.6406 L11,567.6406 " fill="none" style="stroke:#000000;stroke-width:1.5;"/><text fill="#000000" font-family="sans-serif" font-size="14" lengthAdjust="spacing" textLength="54" x="14" y="562.3389">buildCD</text><rect fill="#F1F1F1" height="33.9688" rx="12.5" ry="12.5" style="stroke:#181818;stroke-width:0.5;" width="124" x="130" y="584.6406"/><text fill="#000000" font-family="sans-serif" font-size="12" lengthAdjust="spacing" textLength="104" x="140" y="605.7793">traverse method</text><rect fill="#F1F1F1" height="33.9688" rx="12.5" ry="12.5" style="stroke:#181818;stroke-width:0.5;" width="225" x="79.5" y="638.6094"/><text fill="#000000" font-family="sans-serif" font-size="12" lengthAdjust="spacing" textLength="205" x="89.5" y="659.748">body: method.retrieveActiveBody</text><rect fill="none" height="244.1719" style="stroke:#000000;stroke-width:1.5;" width="206" x="89" y="682.5781"/><path d="M213,682.5781 L213,691.875 L203,701.875 L89,701.875 " fill="none" style="stroke:#000000;stroke-width:1.5;"/><text fill="#000000" font-family="sans-serif" font-size="14" lengthAdjust="spacing" textLength="114" x="92" y="696.5732">UnitGraphNodes</text><rect fill="#F1F1F1" height="33.9688" rx="12.5" ry="12.5" style="stroke:#181818;stroke-width:0.5;" width="150" x="117" y="718.875"/><text fill="#000000" font-family="sans-serif" font-size="12" lengthAdjust="spacing" textLength="130" x="127" y="740.0137">addUniqueStopNode</text><rect fill="#F1F1F1" height="33.9688" rx="12.5" ry="12.5" style="stroke:#181818;stroke-width:0.5;" width="152" x="116" y="772.8438"/><text fill="#000000" font-family="sans-serif" font-size="12" lengthAdjust="spacing" textLength="132" x="126" y="793.9824">addUniqueStartNode</text><rect fill="#F1F1F1" height="33.9688" rx="12.5" ry="12.5" style="stroke:#181818;stroke-width:0.5;" width="186" x="99" y="826.8125"/><text fill="#000000" font-family="sans-serif" font-size="12" lengthAdjust="spacing" textLength="166" x="109" y="847.9512">addEdgeToStart(ENTRY, T)</text><rect fill="#F1F1F1" height="33.9688" rx="12.5" ry="12.5" style="stroke:#181818;stroke-width:0.5;" width="184" x="100" y="880.7813"/><text fill="#000000" font-family="sans-serif" font-size="12" lengthAdjust="spacing" textLength="164" x="110" y="901.9199">addEdgeToStop(ENTRY, F)</text><rect fill="#F1F1F1" height="33.9688" rx="12.5" ry="12.5" style="stroke:#181818;stroke-width:0.5;" width="259" x="62.5" y="946.75"/><text fill="#000000" font-family="sans-serif" font-size="12" lengthAdjust="spacing" textLength="239" x="72.5" y="967.8887">MHGPostDominatorsFinder(unitGraph)</text><rect fill="#F1F1F1" height="33.9688" rx="12.5" ry="12.5" style="stroke:#181818;stroke-width:0.5;" width="240" x="72" y="1056.4292"/><text fill="#000000" font-family="sans-serif" font-size="12" lengthAdjust="spacing" textLength="220" x="82" y="1077.5679">dominatorList: getDominators(unit)</text><rect fill="#F1F1F1" height="33.9688" rx="12.5" ry="12.5" style="stroke:#181818;stroke-width:0.5;" width="270" x="57" y="1166.1084"/><text fill="#000000" font-family="sans-serif" font-size="12" lengthAdjust="spacing" textLength="250" x="67" y="1187.2471">addControlDependenceEdge(a, b, type)</text><polygon fill="#F1F1F1" points="150,1110.3979,234,1110.3979,246,1122.3979,234,1134.3979,150,1134.3979,138,1122.3979,150,1110.3979" style="stroke:#181818;stroke-width:0.5;"/><text fill="#000000" font-family="sans-serif" font-size="11" lengthAdjust="spacing" textLength="57" x="196" y="1144.6084">not empty</text><text fill="#000000" font-family="sans-serif" font-size="11" lengthAdjust="spacing" textLength="84" x="150" y="1126.2061">dominatorList?</text><text fill="#000000" font-family="sans-serif" font-size="11" lengthAdjust="spacing" textLength="49" x="89" y="1119.8037">is empty</text><polygon fill="#F1F1F1" points="162,1000.7188,222,1000.7188,234,1012.7188,222,1024.7188,162,1024.7188,150,1012.7188,162,1000.7188" style="stroke:#181818;stroke-width:0.5;"/><text fill="#000000" font-family="sans-serif" font-size="11" lengthAdjust="spacing" textLength="57" x="196" y="1034.9292">not empty</text><text fill="#000000" font-family="sans-serif" font-size="11" lengthAdjust="spacing" textLength="60" x="162" y="1016.5269">unitgraph?</text><text fill="#000000" font-family="sans-serif" font-size="11" lengthAdjust="spacing" textLength="49" x="101" y="1010.1245">is empty</text><rect fill="#F1F1F1" height="33.9688" rx="12.5" ry="12.5" style="stroke:#181818;stroke-width:0.5;" width="78" x="153" y="1276.0771"/><text fill="#000000" font-family="sans-serif" font-size="12" lengthAdjust="spacing" textLength="58" x="163" y="1297.2158">return cd</text><ellipse cx="192" cy="1340.0459" fill="none" rx="10" ry="10" style="stroke:#222222;stroke-width:1.5;"/><line style="stroke:#222222;stroke-width:2.5;" x1="185.8128" x2="198.1872" y1="1333.8587" y2="1346.2331"/><line style="stroke:#222222;stroke-width:2.5;" x1="198.1872" x2="185.8128" y1="1333.8587" y2="1346.2331"/><line style="stroke:#181818;stroke-width:1.0;" x1="192" x2="192" y1="110.2656" y2="130.2656"/><polygon fill="#181818" points="188,120.2656,192,130.2656,196,120.2656,192,124.2656" style="stroke:#181818;stroke-width:1.0;"/><line style="stroke:#181818;stroke-width:1.0;" x1="192" x2="192" y1="164.2344" y2="184.2344"/><polygon fill="#181818" points="188,174.2344,192,184.2344,196,174.2344,192,178.2344" style="stroke:#181818;stroke-width:1.0;"/><line style="stroke:#181818;stroke-width:1.0;" x1="192" x2="192" y1="30" y2="76.2969"/><polygon fill="#181818" points="188,66.2969,192,76.2969,196,66.2969,192,70.2969" style="stroke:#181818;stroke-width:1.0;"/><line style="stroke:#181818;stroke-width:1.0;" x1="192" x2="192" y1="310.4688" y2="330.4688"/><polygon fill="#181818" points="188,320.4688,192,330.4688,196,320.4688,192,324.4688" style="stroke:#181818;stroke-width:1.0;"/><line style="stroke:#181818;stroke-width:1.0;" x1="192" x2="192" y1="364.4375" y2="384.4375"/><polygon fill="#181818" points="188,374.4375,192,384.4375,196,374.4375,192,378.4375" style="stroke:#181818;stroke-width:1.0;"/><line style="stroke:#181818;stroke-width:1.0;" x1="192" x2="192" y1="418.4063" y2="438.4063"/><polygon fill="#181818" points="188,428.4063,192,438.4063,196,428.4063,192,432.4063" style="stroke:#181818;stroke-width:1.0;"/><line style="stroke:#181818;stroke-width:1.0;" x1="192" x2="192" y1="472.375" y2="492.375"/><polygon fill="#181818" points="188,482.375,192,492.375,196,482.375,192,486.375" style="stroke:#181818;stroke-width:1.0;"/><line style="stroke:#181818;stroke-width:1.0;" x1="192" x2="192" y1="218.2031" y2="276.5"/><polygon fill="#181818" points="188,266.5,192,276.5,196,266.5,192,270.5" style="stroke:#181818;stroke-width:1.0;"/><line style="stroke:#181818;stroke-width:1.0;" x1="192" x2="192" y1="618.6094" y2="638.6094"/><polygon fill="#181818" points="188,628.6094,192,638.6094,196,628.6094,192,632.6094" style="stroke:#181818;stroke-width:1.0;"/><line style="stroke:#181818;stroke-width:1.0;" x1="192" x2="192" y1="752.8438" y2="772.8438"/><polygon fill="#181818" points="188,762.8438,192,772.8438,196,762.8438,192,766.8438" style="stroke:#181818;stroke-width:1.0;"/><line style="stroke:#181818;stroke-width:1.0;" x1="192" x2="192" y1="806.8125" y2="826.8125"/><polygon fill="#181818" points="188,816.8125,192,826.8125,196,816.8125,192,820.8125" style="stroke:#181818;stroke-width:1.0;"/><line style="stroke:#181818;stroke-width:1.0;" x1="192" x2="192" y1="860.7813" y2="880.7813"/><polygon fill="#181818" points="188,870.7813,192,880.7813,196,870.7813,192,874.7813" style="stroke:#181818;stroke-width:1.0;"/><line style="stroke:#181818;stroke-width:1.0;" x1="192" x2="192" y1="672.5781" y2="718.875"/><polygon fill="#181818" points="188,708.875,192,718.875,196,708.875,192,712.875" style="stroke:#181818;stroke-width:1.0;"/><line style="stroke:#181818;stroke-width:1.0;" x1="192" x2="192" y1="914.75" y2="946.75"/><polygon fill="#181818" points="188,936.75,192,946.75,196,936.75,192,940.75" style="stroke:#181818;stroke-width:1.0;"/><line style="stroke:#181818;stroke-width:1.0;" x1="192" x2="192" y1="1134.3979" y2="1166.1084"/><polygon fill="#181818" points="188,1156.1084,192,1166.1084,196,1156.1084,192,1160.1084" style="stroke:#181818;stroke-width:1.0;"/><line style="stroke:#181818;stroke-width:1.0;" x1="192" x2="192" y1="1200.0771" y2="1210.0771"/><line style="stroke:#181818;stroke-width:1.0;" x1="192" x2="339" y1="1210.0771" y2="1210.0771"/><polygon fill="#181818" points="335,1174.6904,339,1164.6904,343,1174.6904,339,1170.6904" style="stroke:#181818;stroke-width:1.0;"/><line style="stroke:#181818;stroke-width:1.0;" x1="339" x2="339" y1="1122.3979" y2="1210.0771"/><line style="stroke:#181818;stroke-width:1.0;" x1="339" x2="246" y1="1122.3979" y2="1122.3979"/><polygon fill="#181818" points="256,1118.3979,246,1122.3979,256,1126.3979,252,1122.3979" style="stroke:#181818;stroke-width:1.0;"/><line style="stroke:#181818;stroke-width:1.0;" x1="138" x2="45" y1="1122.3979" y2="1122.3979"/><polygon fill="#181818" points="41,1160.6904,45,1170.6904,49,1160.6904,45,1164.6904" style="stroke:#181818;stroke-width:1.0;"/><line style="stroke:#181818;stroke-width:1.0;" x1="45" x2="45" y1="1122.3979" y2="1222.0771"/><line style="stroke:#181818;stroke-width:1.0;" x1="45" x2="348" y1="1222.0771" y2="1222.0771"/><line style="stroke:#181818;stroke-width:1.0;" x1="348" x2="348" y1="1012.7188" y2="1222.0771"/><line style="stroke:#181818;stroke-width:1.0;" x1="348" x2="234" y1="1012.7188" y2="1012.7188"/><polygon fill="#181818" points="244,1008.7188,234,1012.7188,244,1016.7188,240,1012.7188" style="stroke:#181818;stroke-width:1.0;"/><line style="stroke:#181818;stroke-width:1.0;" x1="192" x2="192" y1="1090.3979" y2="1110.3979"/><polygon fill="#181818" points="188,1100.3979,192,1110.3979,196,1100.3979,192,1104.3979" style="stroke:#181818;stroke-width:1.0;"/><line style="stroke:#181818;stroke-width:1.0;" x1="192" x2="192" y1="1024.7188" y2="1056.4292"/><polygon fill="#181818" points="188,1046.4292,192,1056.4292,196,1046.4292,192,1050.4292" style="stroke:#181818;stroke-width:1.0;"/><line style="stroke:#181818;stroke-width:1.0;" x1="150" x2="27" y1="1012.7188" y2="1012.7188"/><polygon fill="#181818" points="23,1112.8979,27,1122.8979,31,1112.8979,27,1116.8979" style="stroke:#181818;stroke-width:1.0;"/><line style="stroke:#181818;stroke-width:1.0;" x1="27" x2="27" y1="1012.7188" y2="1244.0771"/><line style="stroke:#181818;stroke-width:1.0;" x1="27" x2="192" y1="1244.0771" y2="1244.0771"/><line style="stroke:#181818;stroke-width:1.0;" x1="192" x2="192" y1="1244.0771" y2="1276.0771"/><polygon fill="#181818" points="188,1266.0771,192,1276.0771,196,1266.0771,192,1270.0771" style="stroke:#181818;stroke-width:1.0;"/><line style="stroke:#181818;stroke-width:1.0;" x1="192" x2="192" y1="980.7188" y2="1000.7188"/><polygon fill="#181818" points="188,990.7188,192,1000.7188,196,990.7188,192,994.7188" style="stroke:#181818;stroke-width:1.0;"/><line style="stroke:#181818;stroke-width:1.0;" x1="192" x2="192" y1="526.3438" y2="584.6406"/><polygon fill="#181818" points="188,574.6406,192,584.6406,196,574.6406,192,578.6406" style="stroke:#181818;stroke-width:1.0;"/><line style="stroke:#181818;stroke-width:1.0;" x1="192" x2="192" y1="1310.0459" y2="1330.0459"/><polygon fill="#181818" points="188,1320.0459,192,1330.0459,196,1320.0459,192,1324.0459" style="stroke:#181818;stroke-width:1.0;"/><!--MD5=[fa15693c1b30d585dc42bb45da6c4466]
@startuml CDAlgorithm

start
group merge scenario 
    :get className;
    :get entry point method;
    :get lines changed;
end group

group soot configuration 
   :Jimple representation;
   :callGraph(): SPARK;
   :setEntryPoints;
   :use-original-names;
   :others configs;
end group

group buildCD
    :traverse method;
    :body: method.retrieveActiveBody;
    group UnitGraphNodes
        :addUniqueStopNode;
        :addUniqueStartNode;
        :addEdgeToStart(ENTRY, T);
        :addEdgeToStop(ENTRY, F);
    end group
    :MHGPostDominatorsFinder(unitGraph);

    while (unitgraph?) is (not empty)
        :dominatorList: getDominators(unit);
        while (dominatorList?) is (not empty)
            :addControlDependenceEdge(a, b, type);
        endwhile (is empty)
    endwhile (is empty)

end group
:return cd;

end






@enduml

PlantUML version 1.2022.7(Mon Aug 22 14:01:30 BRT 2022)
(GPL source distribution)
Java Runtime: OpenJDK Runtime Environment
JVM: OpenJDK 64-Bit Server VM
Default Encoding: UTF-8
Language: en
Country: US
--></g></svg>