<?xml version="1.0" encoding="UTF-8" standalone="no"?><svg xmlns="http://www.w3.org/2000/svg" xmlns:xlink="http://www.w3.org/1999/xlink" contentStyleType="text/css" height="1456px" preserveAspectRatio="none" style="width:2873px;height:1456px;background:#FFFFFF;" version="1.1" viewBox="0 0 2873 1456" width="2873px" zoomAndPan="magnify"><defs/><g><ellipse cx="1466" cy="20" fill="#222222" rx="10" ry="10" style="stroke:#222222;stroke-width:1.0;"/><rect fill="none" height="190.2031" style="stroke:#000000;stroke-width:1.5;" width="185" x="1373.5" y="40"/><path d="M1491.5,40 L1491.5,49.2969 L1481.5,59.2969 L1373.5,59.2969 " fill="none" style="stroke:#000000;stroke-width:1.5;"/><text fill="#000000" font-family="sans-serif" font-size="14" lengthAdjust="spacing" textLength="108" x="1376.5" y="53.9951">merge scenario</text><rect fill="#F1F1F1" height="33.9688" rx="12.5" ry="12.5" style="stroke:#181818;stroke-width:0.5;" width="113" x="1409.5" y="76.2969"/><text fill="#000000" font-family="sans-serif" font-size="12" lengthAdjust="spacing" textLength="93" x="1419.5" y="97.4355">get className</text><rect fill="#F1F1F1" height="33.9688" rx="12.5" ry="12.5" style="stroke:#181818;stroke-width:0.5;" width="165" x="1383.5" y="130.2656"/><text fill="#000000" font-family="sans-serif" font-size="12" lengthAdjust="spacing" textLength="145" x="1393.5" y="151.4043">get entry point method</text><rect fill="#F1F1F1" height="33.9688" rx="12.5" ry="12.5" style="stroke:#181818;stroke-width:0.5;" width="133" x="1399.5" y="184.2344"/><text fill="#000000" font-family="sans-serif" font-size="12" lengthAdjust="spacing" textLength="113" x="1409.5" y="205.373">get lines changed</text><rect fill="none" height="298.1406" style="stroke:#000000;stroke-width:1.5;" width="174" x="1379" y="240.2031"/><path d="M1514,240.2031 L1514,249.5 L1504,259.5 L1379,259.5 " fill="none" style="stroke:#000000;stroke-width:1.5;"/><text fill="#000000" font-family="sans-serif" font-size="14" lengthAdjust="spacing" textLength="125" x="1382" y="254.1982">soot configuration</text><rect fill="#F1F1F1" height="33.9688" rx="12.5" ry="12.5" style="stroke:#181818;stroke-width:0.5;" width="154" x="1389" y="276.5"/><text fill="#000000" font-family="sans-serif" font-size="12" lengthAdjust="spacing" textLength="134" x="1399" y="297.6387">Jimple representation</text><rect fill="#F1F1F1" height="33.9688" rx="12.5" ry="12.5" style="stroke:#181818;stroke-width:0.5;" width="136" x="1398" y="330.4688"/><text fill="#000000" font-family="sans-serif" font-size="12" lengthAdjust="spacing" textLength="116" x="1408" y="351.6074">callGraph(): SPARK</text><rect fill="#F1F1F1" height="33.9688" rx="12.5" ry="12.5" style="stroke:#181818;stroke-width:0.5;" width="111" x="1410.5" y="384.4375"/><text fill="#000000" font-family="sans-serif" font-size="12" lengthAdjust="spacing" textLength="91" x="1420.5" y="405.5762">setEntryPoints</text><rect fill="#F1F1F1" height="33.9688" rx="12.5" ry="12.5" style="stroke:#181818;stroke-width:0.5;" width="139" x="1396.5" y="438.4063"/><text fill="#000000" font-family="sans-serif" font-size="12" lengthAdjust="spacing" textLength="119" x="1406.5" y="459.5449">use-original-names</text><rect fill="#F1F1F1" height="33.9688" rx="12.5" ry="12.5" style="stroke:#181818;stroke-width:0.5;" width="110" x="1411" y="492.375"/><text fill="#000000" font-family="sans-serif" font-size="12" lengthAdjust="spacing" textLength="90" x="1421" y="513.5137">others configs</text><rect fill="none" height="783.6519" style="stroke:#000000;stroke-width:1.5;" width="2851" x="11" y="548.3438"/><path d="M73,548.3438 L73,557.6406 L63,567.6406 L11,567.6406 " fill="none" style="stroke:#000000;stroke-width:1.5;"/><text fill="#000000" font-family="sans-serif" font-size="14" lengthAdjust="spacing" textLength="52" x="14" y="562.3389">buildDF</text><rect fill="#F1F1F1" height="33.9688" rx="12.5" ry="12.5" style="stroke:#181818;stroke-width:0.5;" width="124" x="1404" y="584.6406"/><text fill="#000000" font-family="sans-serif" font-size="12" lengthAdjust="spacing" textLength="104" x="1414" y="605.7793">traverse method</text><rect fill="#F1F1F1" height="33.9688" rx="12.5" ry="12.5" style="stroke:#181818;stroke-width:0.5;" width="235" x="1348.5" y="638.6094"/><text fill="#000000" font-family="sans-serif" font-size="12" lengthAdjust="spacing" textLength="215" x="1358.5" y="659.748">body: method.retrieveActiveBody()</text><rect fill="#F1F1F1" height="33.9688" rx="12.5" ry="12.5" style="stroke:#181818;stroke-width:0.5;" width="200" x="1366" y="692.5781"/><text fill="#000000" font-family="sans-serif" font-size="12" lengthAdjust="spacing" textLength="180" x="1376" y="713.7168">graph: ExceptionalUnitGraph</text><rect fill="#F1F1F1" height="33.9688" rx="12.5" ry="12.5" style="stroke:#181818;stroke-width:0.5;" width="203" x="1364.5" y="746.5469"/><text fill="#000000" font-family="sans-serif" font-size="12" lengthAdjust="spacing" textLength="183" x="1374.5" y="767.6855">defs: SimpleLocalDefs(graph)</text><polygon fill="#F1F1F1" points="1452.5,856.2261,1479.5,856.2261,1491.5,868.2261,1479.5,880.2261,1452.5,880.2261,1440.5,868.2261,1452.5,856.2261" style="stroke:#181818;stroke-width:0.5;"/><text fill="#000000" font-family="sans-serif" font-size="11" lengthAdjust="spacing" textLength="27" x="1452.5" y="872.0342">unit?</text><rect fill="#F1F1F1" height="33.9688" rx="12.5" ry="12.5" style="stroke:#181818;stroke-width:0.5;" width="120" x="297.25" y="915.8354"/><text fill="#000000" font-family="sans-serif" font-size="12" lengthAdjust="spacing" textLength="100" x="307.25" y="936.9741">add edge IfStmt</text><polygon fill="#F1F1F1" points="337.25,969.8042,377.25,969.8042,389.25,981.8042,377.25,993.8042,337.25,993.8042,325.25,981.8042,337.25,969.8042" style="stroke:#181818;stroke-width:0.5;"/><text fill="#000000" font-family="sans-serif" font-size="11" lengthAdjust="spacing" textLength="40" x="337.25" y="985.6123">IfStmt?</text><rect fill="#F1F1F1" height="33.9688" rx="12.5" ry="12.5" style="stroke:#181818;stroke-width:0.5;" width="187" x="39" y="1029.4136"/><text fill="#000000" font-family="sans-serif" font-size="12" lengthAdjust="spacing" textLength="167" x="49" y="1050.5522">add edge InstanceFieldRef</text><rect fill="#F1F1F1" height="33.9688" rx="12.5" ry="12.5" style="stroke:#181818;stroke-width:0.5;" width="136" x="242.5" y="1029.4136"/><text fill="#000000" font-family="sans-serif" font-size="12" lengthAdjust="spacing" textLength="116" x="252.5" y="1050.5522">add edge ArrayRef</text><rect fill="#F1F1F1" height="33.9688" rx="12.5" ry="12.5" style="stroke:#181818;stroke-width:0.5;" width="151" x="398.5" y="1029.4136"/><text fill="#000000" font-family="sans-serif" font-size="12" lengthAdjust="spacing" textLength="131" x="408.5" y="1050.5522">add edge InvokeExpr</text><rect fill="#F1F1F1" height="33.9688" rx="12.5" ry="12.5" style="stroke:#181818;stroke-width:0.5;" width="116" x="559.5" y="1029.4136"/><text fill="#000000" font-family="sans-serif" font-size="12" lengthAdjust="spacing" textLength="96" x="569.5" y="1050.5522">add edge Local</text><polygon fill="#F1F1F1" points="357.25,1151.9956,357.25,1151.9956,369.25,1163.9956,357.25,1175.9956,357.25,1175.9956,345.25,1163.9956,357.25,1151.9956" style="stroke:#181818;stroke-width:0.5;"/><rect fill="#F1F1F1" height="33.9688" rx="12.5" ry="12.5" style="stroke:#181818;stroke-width:0.5;" width="155" x="926.25" y="915.8354"/><text fill="#000000" font-family="sans-serif" font-size="12" lengthAdjust="spacing" textLength="135" x="936.25" y="936.9741">add edge ReturnStmt</text><polygon fill="#F1F1F1" points="968.75,969.8042,1038.75,969.8042,1050.75,981.8042,1038.75,993.8042,968.75,993.8042,956.75,981.8042,968.75,969.8042" style="stroke:#181818;stroke-width:0.5;"/><text fill="#000000" font-family="sans-serif" font-size="11" lengthAdjust="spacing" textLength="70" x="968.75" y="985.6123">ReturnStmt?</text><rect fill="#F1F1F1" height="33.9688" rx="12.5" ry="12.5" style="stroke:#181818;stroke-width:0.5;" width="187" x="685.5" y="1029.4136"/><text fill="#000000" font-family="sans-serif" font-size="12" lengthAdjust="spacing" textLength="167" x="695.5" y="1050.5522">add edge InstanceFieldRef</text><rect fill="#F1F1F1" height="33.9688" rx="12.5" ry="12.5" style="stroke:#181818;stroke-width:0.5;" width="136" x="889" y="1029.4136"/><text fill="#000000" font-family="sans-serif" font-size="12" lengthAdjust="spacing" textLength="116" x="899" y="1050.5522">add edge ArrayRef</text><rect fill="#F1F1F1" height="33.9688" rx="12.5" ry="12.5" style="stroke:#181818;stroke-width:0.5;" width="151" x="1045" y="1029.4136"/><text fill="#000000" font-family="sans-serif" font-size="12" lengthAdjust="spacing" textLength="131" x="1055" y="1050.5522">add edge InvokeExpr</text><rect fill="#F1F1F1" height="33.9688" rx="12.5" ry="12.5" style="stroke:#181818;stroke-width:0.5;" width="116" x="1206" y="1029.4136"/><text fill="#000000" font-family="sans-serif" font-size="12" lengthAdjust="spacing" textLength="96" x="1216" y="1050.5522">add edge Local</text><polygon fill="#F1F1F1" points="1003.75,1151.9956,1003.75,1151.9956,1015.75,1163.9956,1003.75,1175.9956,1003.75,1175.9956,991.75,1163.9956,1003.75,1151.9956" style="stroke:#181818;stroke-width:0.5;"/><rect fill="#F1F1F1" height="33.9688" rx="12.5" ry="12.5" style="stroke:#181818;stroke-width:0.5;" width="154" x="1583.25" y="915.8354"/><text fill="#000000" font-family="sans-serif" font-size="12" lengthAdjust="spacing" textLength="134" x="1593.25" y="936.9741">add edge AssignStmt</text><polygon fill="#F1F1F1" points="1624.75,969.8042,1695.75,969.8042,1707.75,981.8042,1695.75,993.8042,1624.75,993.8042,1612.75,981.8042,1624.75,969.8042" style="stroke:#181818;stroke-width:0.5;"/><text fill="#000000" font-family="sans-serif" font-size="11" lengthAdjust="spacing" textLength="71" x="1624.75" y="985.6123">assignStmt?</text><rect fill="#F1F1F1" height="33.9688" rx="12.5" ry="12.5" style="stroke:#181818;stroke-width:0.5;" width="187" x="1332" y="1029.4136"/><text fill="#000000" font-family="sans-serif" font-size="12" lengthAdjust="spacing" textLength="167" x="1342" y="1050.5522">add edge InstanceFieldRef</text><rect fill="#F1F1F1" height="33.9688" rx="12.5" ry="12.5" style="stroke:#181818;stroke-width:0.5;" width="136" x="1545.5" y="1029.4136"/><text fill="#000000" font-family="sans-serif" font-size="12" lengthAdjust="spacing" textLength="116" x="1555.5" y="1050.5522">add edge ArrayRef</text><rect fill="#F1F1F1" height="33.9688" rx="12.5" ry="12.5" style="stroke:#181818;stroke-width:0.5;" width="151" x="1701.5" y="1029.4136"/><text fill="#000000" font-family="sans-serif" font-size="12" lengthAdjust="spacing" textLength="131" x="1711.5" y="1050.5522">add edge InvokeExpr</text><rect fill="#F1F1F1" height="33.9688" rx="12.5" ry="12.5" style="stroke:#181818;stroke-width:0.5;" width="116" x="1862.5" y="1029.4136"/><text fill="#000000" font-family="sans-serif" font-size="12" lengthAdjust="spacing" textLength="96" x="1872.5" y="1050.5522">add edge Local</text><polygon fill="#F1F1F1" points="1660.25,1151.9956,1660.25,1151.9956,1672.25,1163.9956,1660.25,1175.9956,1660.25,1175.9956,1648.25,1163.9956,1660.25,1151.9956" style="stroke:#181818;stroke-width:0.5;"/><rect fill="#F1F1F1" height="33.9688" rx="12.5" ry="12.5" style="stroke:#181818;stroke-width:0.5;" width="153" x="2358.25" y="915.8354"/><text fill="#000000" font-family="sans-serif" font-size="12" lengthAdjust="spacing" textLength="133" x="2368.25" y="936.9741">add edge InvokeStmt</text><polygon fill="#F1F1F1" points="2366.75,1018.2065,2502.75,1018.2065,2514.75,1030.2065,2502.75,1042.2065,2366.75,1042.2065,2354.75,1030.2065,2366.75,1018.2065" style="stroke:#181818;stroke-width:0.5;"/><text fill="#000000" font-family="sans-serif" font-size="11" lengthAdjust="spacing" textLength="136" x="2366.75" y="1034.0146">InvokeStmt.expression?</text><rect fill="#F1F1F1" height="33.9688" rx="12.5" ry="12.5" style="stroke:#181818;stroke-width:0.5;" width="191" x="1988.5" y="1077.8159"/><text fill="#000000" font-family="sans-serif" font-size="12" lengthAdjust="spacing" textLength="171" x="1998.5" y="1098.9546">add edge defsToThisObject</text><rect fill="#F1F1F1" height="33.9688" rx="12.5" ry="12.5" style="stroke:#181818;stroke-width:0.5;" width="196" x="2189.5" y="1077.8159"/><text fill="#000000" font-family="sans-serif" font-size="12" lengthAdjust="spacing" textLength="176" x="2199.5" y="1098.9546">add edge defsToFormalArgs</text><rect fill="#F1F1F1" height="33.9688" rx="12.5" ry="12.5" style="stroke:#181818;stroke-width:0.5;" width="172" x="2429.5" y="1077.8159"/><text fill="#000000" font-family="sans-serif" font-size="12" lengthAdjust="spacing" textLength="152" x="2439.5" y="1098.9546">add edge defsToCallSite</text><rect fill="#F1F1F1" height="33.9688" rx="12.5" ry="12.5" style="stroke:#181818;stroke-width:0.5;" width="181" x="2611.5" y="1077.8159"/><text fill="#000000" font-family="sans-serif" font-size="12" lengthAdjust="spacing" textLength="161" x="2621.5" y="1098.9546">add edge stringToCallSite</text><polygon fill="#F1F1F1" points="2434.75,1195.9956,2434.75,1195.9956,2446.75,1207.9956,2434.75,1219.9956,2434.75,1219.9956,2422.75,1207.9956,2434.75,1195.9956" style="stroke:#181818;stroke-width:0.5;"/><polygon fill="#F1F1F1" points="2388.25,969.8042,2481.25,969.8042,2493.25,981.8042,2481.25,993.8042,2388.25,993.8042,2376.25,981.8042,2388.25,969.8042" style="stroke:#181818;stroke-width:0.5;"/><text fill="#000000" font-family="sans-serif" font-size="11" lengthAdjust="spacing" textLength="20" x="2438.75" y="1004.0146">yes</text><text fill="#000000" font-family="sans-serif" font-size="11" lengthAdjust="spacing" textLength="93" x="2388.25" y="985.6123">interprocedural?</text><text fill="#000000" font-family="sans-serif" font-size="11" lengthAdjust="spacing" textLength="14" x="2493.25" y="979.21">no</text><polygon fill="#F1F1F1" points="2434.75,1239.9956,2446.75,1251.9956,2434.75,1263.9956,2422.75,1251.9956,2434.75,1239.9956" style="stroke:#181818;stroke-width:0.5;"/><polygon fill="#F1F1F1" points="1466,1273.9956,1466,1273.9956,1478,1285.9956,1466,1297.9956,1466,1297.9956,1454,1285.9956,1466,1273.9956" style="stroke:#181818;stroke-width:0.5;"/><polygon fill="#F1F1F1" points="1424,800.5156,1508,800.5156,1520,812.5156,1508,824.5156,1424,824.5156,1412,812.5156,1424,800.5156" style="stroke:#181818;stroke-width:0.5;"/><text fill="#000000" font-family="sans-serif" font-size="11" lengthAdjust="spacing" textLength="57" x="1470" y="834.7261">not empty</text><text fill="#000000" font-family="sans-serif" font-size="11" lengthAdjust="spacing" textLength="84" x="1424" y="816.3237">body.getUnits?</text><rect fill="#F1F1F1" height="33.9688" rx="12.5" ry="12.5" style="stroke:#181818;stroke-width:0.5;" width="78" x="1427" y="1371.2061"/><text fill="#000000" font-family="sans-serif" font-size="12" lengthAdjust="spacing" textLength="58" x="1437" y="1392.3447">return cd</text><ellipse cx="1466" cy="1435.1748" fill="none" rx="10" ry="10" style="stroke:#222222;stroke-width:1.5;"/><line style="stroke:#222222;stroke-width:2.5;" x1="1459.8128" x2="1472.1872" y1="1428.9876" y2="1441.362"/><line style="stroke:#222222;stroke-width:2.5;" x1="1472.1872" x2="1459.8128" y1="1428.9876" y2="1441.362"/><line style="stroke:#181818;stroke-width:1.0;" x1="1466" x2="1466" y1="110.2656" y2="130.2656"/><polygon fill="#181818" points="1462,120.2656,1466,130.2656,1470,120.2656,1466,124.2656" style="stroke:#181818;stroke-width:1.0;"/><line style="stroke:#181818;stroke-width:1.0;" x1="1466" x2="1466" y1="164.2344" y2="184.2344"/><polygon fill="#181818" points="1462,174.2344,1466,184.2344,1470,174.2344,1466,178.2344" style="stroke:#181818;stroke-width:1.0;"/><line style="stroke:#181818;stroke-width:1.0;" x1="1466" x2="1466" y1="30" y2="76.2969"/><polygon fill="#181818" points="1462,66.2969,1466,76.2969,1470,66.2969,1466,70.2969" style="stroke:#181818;stroke-width:1.0;"/><line style="stroke:#181818;stroke-width:1.0;" x1="1466" x2="1466" y1="310.4688" y2="330.4688"/><polygon fill="#181818" points="1462,320.4688,1466,330.4688,1470,320.4688,1466,324.4688" style="stroke:#181818;stroke-width:1.0;"/><line style="stroke:#181818;stroke-width:1.0;" x1="1466" x2="1466" y1="364.4375" y2="384.4375"/><polygon fill="#181818" points="1462,374.4375,1466,384.4375,1470,374.4375,1466,378.4375" style="stroke:#181818;stroke-width:1.0;"/><line style="stroke:#181818;stroke-width:1.0;" x1="1466" x2="1466" y1="418.4063" y2="438.4063"/><polygon fill="#181818" points="1462,428.4063,1466,438.4063,1470,428.4063,1466,432.4063" style="stroke:#181818;stroke-width:1.0;"/><line style="stroke:#181818;stroke-width:1.0;" x1="1466" x2="1466" y1="472.375" y2="492.375"/><polygon fill="#181818" points="1462,482.375,1466,492.375,1470,482.375,1466,486.375" style="stroke:#181818;stroke-width:1.0;"/><line style="stroke:#181818;stroke-width:1.0;" x1="1466" x2="1466" y1="218.2031" y2="276.5"/><polygon fill="#181818" points="1462,266.5,1466,276.5,1470,266.5,1466,270.5" style="stroke:#181818;stroke-width:1.0;"/><line style="stroke:#181818;stroke-width:1.0;" x1="1466" x2="1466" y1="618.6094" y2="638.6094"/><polygon fill="#181818" points="1462,628.6094,1466,638.6094,1470,628.6094,1466,632.6094" style="stroke:#181818;stroke-width:1.0;"/><line style="stroke:#181818;stroke-width:1.0;" x1="1466" x2="1466" y1="672.5781" y2="692.5781"/><polygon fill="#181818" points="1462,682.5781,1466,692.5781,1470,682.5781,1466,686.5781" style="stroke:#181818;stroke-width:1.0;"/><line style="stroke:#181818;stroke-width:1.0;" x1="1466" x2="1466" y1="726.5469" y2="746.5469"/><polygon fill="#181818" points="1462,736.5469,1466,746.5469,1470,736.5469,1466,740.5469" style="stroke:#181818;stroke-width:1.0;"/><line style="stroke:#181818;stroke-width:1.0;" x1="325.25" x2="132.5" y1="981.8042" y2="981.8042"/><line style="stroke:#181818;stroke-width:1.0;" x1="132.5" x2="132.5" y1="981.8042" y2="1029.4136"/><polygon fill="#181818" points="128.5,1019.4136,132.5,1029.4136,136.5,1019.4136,132.5,1023.4136" style="stroke:#181818;stroke-width:1.0;"/><text fill="#000000" font-family="sans-serif" font-size="11" lengthAdjust="spacing" textLength="92" x="136.5" y="1009.417">InstanceFieldRef</text><line style="stroke:#181818;stroke-width:1.0;" x1="389.25" x2="617.5" y1="981.8042" y2="981.8042"/><line style="stroke:#181818;stroke-width:1.0;" x1="617.5" x2="617.5" y1="981.8042" y2="1029.4136"/><polygon fill="#181818" points="613.5,1019.4136,617.5,1029.4136,621.5,1019.4136,617.5,1023.4136" style="stroke:#181818;stroke-width:1.0;"/><text fill="#000000" font-family="sans-serif" font-size="11" lengthAdjust="spacing" textLength="29" x="621.5" y="1009.417">Local</text><line style="stroke:#181818;stroke-width:1.0;" x1="310.5" x2="310.5" y1="981.8042" y2="1029.4136"/><polygon fill="#181818" points="306.5,1019.4136,310.5,1029.4136,314.5,1019.4136,310.5,1023.4136" style="stroke:#181818;stroke-width:1.0;"/><text fill="#000000" font-family="sans-serif" font-size="11" lengthAdjust="spacing" textLength="48" x="314.5" y="1004.417">ArrayRef</text><line style="stroke:#181818;stroke-width:1.0;" x1="474" x2="474" y1="981.8042" y2="1029.4136"/><polygon fill="#181818" points="470,1019.4136,474,1029.4136,478,1019.4136,474,1023.4136" style="stroke:#181818;stroke-width:1.0;"/><text fill="#000000" font-family="sans-serif" font-size="11" lengthAdjust="spacing" textLength="61" x="478" y="1004.417">InvokeExpr</text><line style="stroke:#181818;stroke-width:1.0;" x1="132.5" x2="132.5" y1="1063.3823" y2="1163.9956"/><line style="stroke:#181818;stroke-width:1.0;" x1="132.5" x2="345.25" y1="1163.9956" y2="1163.9956"/><polygon fill="#181818" points="335.25,1159.9956,345.25,1163.9956,335.25,1167.9956,339.25,1163.9956" style="stroke:#181818;stroke-width:1.0;"/><line style="stroke:#181818;stroke-width:1.0;" x1="617.5" x2="617.5" y1="1063.3823" y2="1163.9956"/><line style="stroke:#181818;stroke-width:1.0;" x1="617.5" x2="369.25" y1="1163.9956" y2="1163.9956"/><polygon fill="#181818" points="379.25,1159.9956,369.25,1163.9956,379.25,1167.9956,375.25,1163.9956" style="stroke:#181818;stroke-width:1.0;"/><line style="stroke:#181818;stroke-width:1.0;" x1="310.5" x2="310.5" y1="1063.3823" y2="1163.9956"/><polygon fill="#181818" points="306.5,1153.9956,310.5,1163.9956,314.5,1153.9956,310.5,1157.9956" style="stroke:#181818;stroke-width:1.0;"/><line style="stroke:#181818;stroke-width:1.0;" x1="474" x2="474" y1="1063.3823" y2="1163.9956"/><polygon fill="#181818" points="470,1153.9956,474,1163.9956,478,1153.9956,474,1157.9956" style="stroke:#181818;stroke-width:1.0;"/><line style="stroke:#181818;stroke-width:1.0;" x1="357.25" x2="357.25" y1="949.8042" y2="969.8042"/><polygon fill="#181818" points="353.25,959.8042,357.25,969.8042,361.25,959.8042,357.25,963.8042" style="stroke:#181818;stroke-width:1.0;"/><line style="stroke:#181818;stroke-width:1.0;" x1="956.75" x2="779" y1="981.8042" y2="981.8042"/><line style="stroke:#181818;stroke-width:1.0;" x1="779" x2="779" y1="981.8042" y2="1029.4136"/><polygon fill="#181818" points="775,1019.4136,779,1029.4136,783,1019.4136,779,1023.4136" style="stroke:#181818;stroke-width:1.0;"/><text fill="#000000" font-family="sans-serif" font-size="11" lengthAdjust="spacing" textLength="92" x="783" y="1009.417">InstanceFieldRef</text><line style="stroke:#181818;stroke-width:1.0;" x1="1050.75" x2="1264" y1="981.8042" y2="981.8042"/><line style="stroke:#181818;stroke-width:1.0;" x1="1264" x2="1264" y1="981.8042" y2="1029.4136"/><polygon fill="#181818" points="1260,1019.4136,1264,1029.4136,1268,1019.4136,1264,1023.4136" style="stroke:#181818;stroke-width:1.0;"/><text fill="#000000" font-family="sans-serif" font-size="11" lengthAdjust="spacing" textLength="29" x="1268" y="1009.417">Local</text><line style="stroke:#181818;stroke-width:1.0;" x1="1003.75" x2="1003.75" y1="993.8042" y2="1005.674"/><line style="stroke:#181818;stroke-width:1.0;" x1="1003.75" x2="957" y1="1005.674" y2="1005.674"/><line style="stroke:#181818;stroke-width:1.0;" x1="957" x2="957" y1="1005.674" y2="1029.4136"/><polygon fill="#181818" points="953,1019.4136,957,1029.4136,961,1019.4136,957,1023.4136" style="stroke:#181818;stroke-width:1.0;"/><text fill="#000000" font-family="sans-serif" font-size="11" lengthAdjust="spacing" textLength="48" x="961" y="1010.417">ArrayRef</text><line style="stroke:#181818;stroke-width:1.0;" x1="1120.5" x2="1120.5" y1="981.8042" y2="1029.4136"/><polygon fill="#181818" points="1116.5,1019.4136,1120.5,1029.4136,1124.5,1019.4136,1120.5,1023.4136" style="stroke:#181818;stroke-width:1.0;"/><text fill="#000000" font-family="sans-serif" font-size="11" lengthAdjust="spacing" textLength="61" x="1124.5" y="1004.417">InvokeExpr</text><line style="stroke:#181818;stroke-width:1.0;" x1="779" x2="779" y1="1063.3823" y2="1163.9956"/><line style="stroke:#181818;stroke-width:1.0;" x1="779" x2="991.75" y1="1163.9956" y2="1163.9956"/><polygon fill="#181818" points="981.75,1159.9956,991.75,1163.9956,981.75,1167.9956,985.75,1163.9956" style="stroke:#181818;stroke-width:1.0;"/><line style="stroke:#181818;stroke-width:1.0;" x1="1264" x2="1264" y1="1063.3823" y2="1163.9956"/><line style="stroke:#181818;stroke-width:1.0;" x1="1264" x2="1015.75" y1="1163.9956" y2="1163.9956"/><polygon fill="#181818" points="1025.75,1159.9956,1015.75,1163.9956,1025.75,1167.9956,1021.75,1163.9956" style="stroke:#181818;stroke-width:1.0;"/><line style="stroke:#181818;stroke-width:1.0;" x1="957" x2="957" y1="1063.3823" y2="1118.3823"/><line style="stroke:#181818;stroke-width:1.0;" x1="957" x2="1003.75" y1="1118.3823" y2="1118.3823"/><line style="stroke:#181818;stroke-width:1.0;" x1="1003.75" x2="1003.75" y1="1118.3823" y2="1151.9956"/><polygon fill="#181818" points="999.75,1141.9956,1003.75,1151.9956,1007.75,1141.9956,1003.75,1145.9956" style="stroke:#181818;stroke-width:1.0;"/><line style="stroke:#181818;stroke-width:1.0;" x1="1120.5" x2="1120.5" y1="1063.3823" y2="1163.9956"/><polygon fill="#181818" points="1116.5,1153.9956,1120.5,1163.9956,1124.5,1153.9956,1120.5,1157.9956" style="stroke:#181818;stroke-width:1.0;"/><line style="stroke:#181818;stroke-width:1.0;" x1="1003.75" x2="1003.75" y1="949.8042" y2="969.8042"/><polygon fill="#181818" points="999.75,959.8042,1003.75,969.8042,1007.75,959.8042,1003.75,963.8042" style="stroke:#181818;stroke-width:1.0;"/><line style="stroke:#181818;stroke-width:1.0;" x1="1612.75" x2="1425.5" y1="981.8042" y2="981.8042"/><line style="stroke:#181818;stroke-width:1.0;" x1="1425.5" x2="1425.5" y1="981.8042" y2="1029.4136"/><polygon fill="#181818" points="1421.5,1019.4136,1425.5,1029.4136,1429.5,1019.4136,1425.5,1023.4136" style="stroke:#181818;stroke-width:1.0;"/><text fill="#000000" font-family="sans-serif" font-size="11" lengthAdjust="spacing" textLength="92" x="1429.5" y="1009.417">InstanceFieldRef</text><line style="stroke:#181818;stroke-width:1.0;" x1="1707.75" x2="1920.5" y1="981.8042" y2="981.8042"/><line style="stroke:#181818;stroke-width:1.0;" x1="1920.5" x2="1920.5" y1="981.8042" y2="1029.4136"/><polygon fill="#181818" points="1916.5,1019.4136,1920.5,1029.4136,1924.5,1019.4136,1920.5,1023.4136" style="stroke:#181818;stroke-width:1.0;"/><text fill="#000000" font-family="sans-serif" font-size="11" lengthAdjust="spacing" textLength="29" x="1924.5" y="1009.417">Local</text><line style="stroke:#181818;stroke-width:1.0;" x1="1660.25" x2="1660.25" y1="993.8042" y2="1005.674"/><line style="stroke:#181818;stroke-width:1.0;" x1="1660.25" x2="1613.5" y1="1005.674" y2="1005.674"/><line style="stroke:#181818;stroke-width:1.0;" x1="1613.5" x2="1613.5" y1="1005.674" y2="1029.4136"/><polygon fill="#181818" points="1609.5,1019.4136,1613.5,1029.4136,1617.5,1019.4136,1613.5,1023.4136" style="stroke:#181818;stroke-width:1.0;"/><text fill="#000000" font-family="sans-serif" font-size="11" lengthAdjust="spacing" textLength="48" x="1617.5" y="1010.417">ArrayRef</text><line style="stroke:#181818;stroke-width:1.0;" x1="1777" x2="1777" y1="981.8042" y2="1029.4136"/><polygon fill="#181818" points="1773,1019.4136,1777,1029.4136,1781,1019.4136,1777,1023.4136" style="stroke:#181818;stroke-width:1.0;"/><text fill="#000000" font-family="sans-serif" font-size="11" lengthAdjust="spacing" textLength="61" x="1781" y="1004.417">InvokeExpr</text><line style="stroke:#181818;stroke-width:1.0;" x1="1425.5" x2="1425.5" y1="1063.3823" y2="1163.9956"/><line style="stroke:#181818;stroke-width:1.0;" x1="1425.5" x2="1648.25" y1="1163.9956" y2="1163.9956"/><polygon fill="#181818" points="1638.25,1159.9956,1648.25,1163.9956,1638.25,1167.9956,1642.25,1163.9956" style="stroke:#181818;stroke-width:1.0;"/><line style="stroke:#181818;stroke-width:1.0;" x1="1920.5" x2="1920.5" y1="1063.3823" y2="1163.9956"/><line style="stroke:#181818;stroke-width:1.0;" x1="1920.5" x2="1672.25" y1="1163.9956" y2="1163.9956"/><polygon fill="#181818" points="1682.25,1159.9956,1672.25,1163.9956,1682.25,1167.9956,1678.25,1163.9956" style="stroke:#181818;stroke-width:1.0;"/><line style="stroke:#181818;stroke-width:1.0;" x1="1613.5" x2="1613.5" y1="1063.3823" y2="1118.3823"/><line style="stroke:#181818;stroke-width:1.0;" x1="1613.5" x2="1660.25" y1="1118.3823" y2="1118.3823"/><line style="stroke:#181818;stroke-width:1.0;" x1="1660.25" x2="1660.25" y1="1118.3823" y2="1151.9956"/><polygon fill="#181818" points="1656.25,1141.9956,1660.25,1151.9956,1664.25,1141.9956,1660.25,1145.9956" style="stroke:#181818;stroke-width:1.0;"/><line style="stroke:#181818;stroke-width:1.0;" x1="1777" x2="1777" y1="1063.3823" y2="1163.9956"/><polygon fill="#181818" points="1773,1153.9956,1777,1163.9956,1781,1153.9956,1777,1157.9956" style="stroke:#181818;stroke-width:1.0;"/><line style="stroke:#181818;stroke-width:1.0;" x1="1660.25" x2="1660.25" y1="949.8042" y2="969.8042"/><polygon fill="#181818" points="1656.25,959.8042,1660.25,969.8042,1664.25,959.8042,1660.25,963.8042" style="stroke:#181818;stroke-width:1.0;"/><line style="stroke:#181818;stroke-width:1.0;" x1="2354.75" x2="2084" y1="1030.2065" y2="1030.2065"/><line style="stroke:#181818;stroke-width:1.0;" x1="2084" x2="2084" y1="1030.2065" y2="1077.8159"/><polygon fill="#181818" points="2080,1067.8159,2084,1077.8159,2088,1067.8159,2084,1071.8159" style="stroke:#181818;stroke-width:1.0;"/><text fill="#000000" font-family="sans-serif" font-size="11" lengthAdjust="spacing" textLength="78" x="2088" y="1057.8193">isThisInitStmt</text><line style="stroke:#181818;stroke-width:1.0;" x1="2514.75" x2="2702" y1="1030.2065" y2="1030.2065"/><line style="stroke:#181818;stroke-width:1.0;" x1="2702" x2="2702" y1="1030.2065" y2="1077.8159"/><polygon fill="#181818" points="2698,1067.8159,2702,1077.8159,2706,1067.8159,2702,1071.8159" style="stroke:#181818;stroke-width:1.0;"/><text fill="#000000" font-family="sans-serif" font-size="11" lengthAdjust="spacing" textLength="108" x="2706" y="1057.8193">isReturnStringStmt</text><line style="stroke:#181818;stroke-width:1.0;" x1="2287.5" x2="2287.5" y1="1030.2065" y2="1077.8159"/><polygon fill="#181818" points="2283.5,1067.8159,2287.5,1077.8159,2291.5,1067.8159,2287.5,1071.8159" style="stroke:#181818;stroke-width:1.0;"/><text fill="#000000" font-family="sans-serif" font-size="11" lengthAdjust="spacing" textLength="114" x="2291.5" y="1052.8193">isParameterInitStmt</text><line style="stroke:#181818;stroke-width:1.0;" x1="2434.75" x2="2434.75" y1="1042.2065" y2="1054.0763"/><line style="stroke:#181818;stroke-width:1.0;" x1="2434.75" x2="2515.5" y1="1054.0763" y2="1054.0763"/><line style="stroke:#181818;stroke-width:1.0;" x1="2515.5" x2="2515.5" y1="1054.0763" y2="1077.8159"/><polygon fill="#181818" points="2511.5,1067.8159,2515.5,1077.8159,2519.5,1067.8159,2515.5,1071.8159" style="stroke:#181818;stroke-width:1.0;"/><text fill="#000000" font-family="sans-serif" font-size="11" lengthAdjust="spacing" textLength="141" x="2438.75" y="1058.8193">isAssignReturnLocalStmt</text><line style="stroke:#181818;stroke-width:1.0;" x1="2084" x2="2084" y1="1111.7847" y2="1207.9956"/><line style="stroke:#181818;stroke-width:1.0;" x1="2084" x2="2422.75" y1="1207.9956" y2="1207.9956"/><polygon fill="#181818" points="2412.75,1203.9956,2422.75,1207.9956,2412.75,1211.9956,2416.75,1207.9956" style="stroke:#181818;stroke-width:1.0;"/><line style="stroke:#181818;stroke-width:1.0;" x1="2702" x2="2702" y1="1111.7847" y2="1207.9956"/><line style="stroke:#181818;stroke-width:1.0;" x1="2702" x2="2446.75" y1="1207.9956" y2="1207.9956"/><polygon fill="#181818" points="2456.75,1203.9956,2446.75,1207.9956,2456.75,1211.9956,2452.75,1207.9956" style="stroke:#181818;stroke-width:1.0;"/><line style="stroke:#181818;stroke-width:1.0;" x1="2287.5" x2="2287.5" y1="1111.7847" y2="1207.9956"/><polygon fill="#181818" points="2283.5,1197.9956,2287.5,1207.9956,2291.5,1197.9956,2287.5,1201.9956" style="stroke:#181818;stroke-width:1.0;"/><line style="stroke:#181818;stroke-width:1.0;" x1="2515.5" x2="2515.5" y1="1111.7847" y2="1145.3979"/><line style="stroke:#181818;stroke-width:1.0;" x1="2515.5" x2="2434.75" y1="1145.3979" y2="1145.3979"/><line style="stroke:#181818;stroke-width:1.0;" x1="2434.75" x2="2434.75" y1="1145.3979" y2="1195.9956"/><polygon fill="#181818" points="2430.75,1185.9956,2434.75,1195.9956,2438.75,1185.9956,2434.75,1189.9956" style="stroke:#181818;stroke-width:1.0;"/><line style="stroke:#181818;stroke-width:1.0;" x1="2434.75" x2="2434.75" y1="993.8042" y2="1018.2065"/><polygon fill="#181818" points="2430.75,1008.2065,2434.75,1018.2065,2438.75,1008.2065,2434.75,1012.2065" style="stroke:#181818;stroke-width:1.0;"/><line style="stroke:#181818;stroke-width:1.0;" x1="2493.25" x2="2828" y1="981.8042" y2="981.8042"/><polygon fill="#181818" points="2824,1121.9956,2828,1131.9956,2832,1121.9956,2828,1125.9956" style="stroke:#181818;stroke-width:1.0;"/><line style="stroke:#181818;stroke-width:1.0;" x1="2828" x2="2828" y1="981.8042" y2="1251.9956"/><line style="stroke:#181818;stroke-width:1.0;" x1="2828" x2="2446.75" y1="1251.9956" y2="1251.9956"/><polygon fill="#181818" points="2456.75,1247.9956,2446.75,1251.9956,2456.75,1255.9956,2452.75,1251.9956" style="stroke:#181818;stroke-width:1.0;"/><line style="stroke:#181818;stroke-width:1.0;" x1="2434.75" x2="2434.75" y1="1219.9956" y2="1239.9956"/><polygon fill="#181818" points="2430.75,1229.9956,2434.75,1239.9956,2438.75,1229.9956,2434.75,1233.9956" style="stroke:#181818;stroke-width:1.0;"/><line style="stroke:#181818;stroke-width:1.0;" x1="2434.75" x2="2434.75" y1="949.8042" y2="969.8042"/><polygon fill="#181818" points="2430.75,959.8042,2434.75,969.8042,2438.75,959.8042,2434.75,963.8042" style="stroke:#181818;stroke-width:1.0;"/><line style="stroke:#181818;stroke-width:1.0;" x1="1440.5" x2="357.25" y1="868.2261" y2="868.2261"/><line style="stroke:#181818;stroke-width:1.0;" x1="357.25" x2="357.25" y1="868.2261" y2="915.8354"/><polygon fill="#181818" points="353.25,905.8354,357.25,915.8354,361.25,905.8354,357.25,909.8354" style="stroke:#181818;stroke-width:1.0;"/><text fill="#000000" font-family="sans-serif" font-size="11" lengthAdjust="spacing" textLength="34" x="361.25" y="895.8389">IfStmt</text><line style="stroke:#181818;stroke-width:1.0;" x1="1491.5" x2="2434.75" y1="868.2261" y2="868.2261"/><line style="stroke:#181818;stroke-width:1.0;" x1="2434.75" x2="2434.75" y1="868.2261" y2="915.8354"/><polygon fill="#181818" points="2430.75,905.8354,2434.75,915.8354,2438.75,905.8354,2434.75,909.8354" style="stroke:#181818;stroke-width:1.0;"/><text fill="#000000" font-family="sans-serif" font-size="11" lengthAdjust="spacing" textLength="63" x="2438.75" y="895.8389">InvokeStmt</text><line style="stroke:#181818;stroke-width:1.0;" x1="1003.75" x2="1003.75" y1="868.2261" y2="915.8354"/><polygon fill="#181818" points="999.75,905.8354,1003.75,915.8354,1007.75,905.8354,1003.75,909.8354" style="stroke:#181818;stroke-width:1.0;"/><text fill="#000000" font-family="sans-serif" font-size="11" lengthAdjust="spacing" textLength="64" x="1007.75" y="890.8389">ReturnStmt</text><line style="stroke:#181818;stroke-width:1.0;" x1="1660.25" x2="1660.25" y1="868.2261" y2="915.8354"/><polygon fill="#181818" points="1656.25,905.8354,1660.25,915.8354,1664.25,905.8354,1660.25,909.8354" style="stroke:#181818;stroke-width:1.0;"/><text fill="#000000" font-family="sans-serif" font-size="11" lengthAdjust="spacing" textLength="65" x="1664.25" y="890.8389">AssignStmt</text><line style="stroke:#181818;stroke-width:1.0;" x1="357.25" x2="357.25" y1="1175.9956" y2="1285.9956"/><line style="stroke:#181818;stroke-width:1.0;" x1="357.25" x2="1454" y1="1285.9956" y2="1285.9956"/><polygon fill="#181818" points="1444,1281.9956,1454,1285.9956,1444,1289.9956,1448,1285.9956" style="stroke:#181818;stroke-width:1.0;"/><line style="stroke:#181818;stroke-width:1.0;" x1="2434.75" x2="2434.75" y1="1263.9956" y2="1285.9956"/><line style="stroke:#181818;stroke-width:1.0;" x1="2434.75" x2="1478" y1="1285.9956" y2="1285.9956"/><polygon fill="#181818" points="1488,1281.9956,1478,1285.9956,1488,1289.9956,1484,1285.9956" style="stroke:#181818;stroke-width:1.0;"/><line style="stroke:#181818;stroke-width:1.0;" x1="1003.75" x2="1003.75" y1="1175.9956" y2="1285.9956"/><polygon fill="#181818" points="999.75,1275.9956,1003.75,1285.9956,1007.75,1275.9956,1003.75,1279.9956" style="stroke:#181818;stroke-width:1.0;"/><line style="stroke:#181818;stroke-width:1.0;" x1="1660.25" x2="1660.25" y1="1175.9956" y2="1285.9956"/><polygon fill="#181818" points="1656.25,1275.9956,1660.25,1285.9956,1664.25,1275.9956,1660.25,1279.9956" style="stroke:#181818;stroke-width:1.0;"/><line style="stroke:#181818;stroke-width:1.0;" x1="1466" x2="1466" y1="824.5156" y2="856.2261"/><polygon fill="#181818" points="1462,846.2261,1466,856.2261,1470,846.2261,1466,850.2261" style="stroke:#181818;stroke-width:1.0;"/><line style="stroke:#181818;stroke-width:1.0;" x1="1466" x2="1466" y1="1297.9956" y2="1307.9956"/><line style="stroke:#181818;stroke-width:1.0;" x1="1466" x2="2846" y1="1307.9956" y2="1307.9956"/><polygon fill="#181818" points="2842,1126.3042,2846,1116.3042,2850,1126.3042,2846,1122.3042" style="stroke:#181818;stroke-width:1.0;"/><line style="stroke:#181818;stroke-width:1.0;" x1="2846" x2="2846" y1="812.5156" y2="1307.9956"/><line style="stroke:#181818;stroke-width:1.0;" x1="2846" x2="1520" y1="812.5156" y2="812.5156"/><polygon fill="#181818" points="1530,808.5156,1520,812.5156,1530,816.5156,1526,812.5156" style="stroke:#181818;stroke-width:1.0;"/><line style="stroke:#181818;stroke-width:1.0;" x1="1412" x2="27" y1="812.5156" y2="812.5156"/><polygon fill="#181818" points="23,1112.3042,27,1122.3042,31,1112.3042,27,1116.3042" style="stroke:#181818;stroke-width:1.0;"/><line style="stroke:#181818;stroke-width:1.0;" x1="27" x2="27" y1="812.5156" y2="1319.9956"/><line style="stroke:#181818;stroke-width:1.0;" x1="27" x2="1466" y1="1319.9956" y2="1319.9956"/><line style="stroke:#181818;stroke-width:1.0;" x1="1466" x2="1466" y1="780.5156" y2="800.5156"/><polygon fill="#181818" points="1462,790.5156,1466,800.5156,1470,790.5156,1466,794.5156" style="stroke:#181818;stroke-width:1.0;"/><line style="stroke:#181818;stroke-width:1.0;" x1="1466" x2="1466" y1="526.3438" y2="584.6406"/><polygon fill="#181818" points="1462,574.6406,1466,584.6406,1470,574.6406,1466,578.6406" style="stroke:#181818;stroke-width:1.0;"/><line style="stroke:#181818;stroke-width:1.0;" x1="1466" x2="1466" y1="1319.9956" y2="1371.2061"/><polygon fill="#181818" points="1462,1361.2061,1466,1371.2061,1470,1361.2061,1466,1365.2061" style="stroke:#181818;stroke-width:1.0;"/><text fill="#000000" font-family="sans-serif" font-size="11" lengthAdjust="spacing" textLength="49" x="1470" y="1349.7061">is empty</text><line style="stroke:#181818;stroke-width:1.0;" x1="1466" x2="1466" y1="1405.1748" y2="1425.1748"/><polygon fill="#181818" points="1462,1415.1748,1466,1425.1748,1470,1415.1748,1466,1419.1748" style="stroke:#181818;stroke-width:1.0;"/><!--MD5=[4fec9c162387fbbc1f1444df32da61b8]
@startuml DFAlgorithm

start
group merge scenario 
    :get className;
    :get entry point method;
    :get lines changed;
end group

group soot configuration 
   :Jimple representation;
   :callGraph(): SPARK;
   :setEntryPoints;
   :use-original-names;
   :others configs;
end group

group buildDF
    :traverse method;
    :body: method.retrieveActiveBody();
    :graph: ExceptionalUnitGraph;
    :defs: SimpleLocalDefs(graph);

    while (body.getUnits?) is (not empty) 
        
        switch (unit?)
            case ( IfStmt )
                :add edge IfStmt;
                switch (IfStmt?)
                    case ( InstanceFieldRef )
                        :add edge InstanceFieldRef;
                    case ( ArrayRef ) 
                        :add edge ArrayRef;
                    case ( InvokeExpr )
                        :add edge InvokeExpr;
                    case ( Local )
                        :add edge Local;
                endswitch

            case ( ReturnStmt ) 
                :add edge ReturnStmt;
                switch (ReturnStmt?)
                    case ( InstanceFieldRef )
                        :add edge InstanceFieldRef;
                    case ( ArrayRef ) 
                        :add edge ArrayRef;
                    case ( InvokeExpr )
                        :add edge InvokeExpr;
                    case ( Local )
                        :add edge Local;
                endswitch
            case ( AssignStmt )
                :add edge AssignStmt;
                switch (assignStmt?)
                    case ( InstanceFieldRef )
                        :add edge InstanceFieldRef;
                    case ( ArrayRef ) 
                        :add edge ArrayRef;
                    case ( InvokeExpr )
                        :add edge InvokeExpr;
                    case ( Local )
                        :add edge Local;
                endswitch
                
            case ( InvokeStmt )
                :add edge InvokeStmt;
                if (interprocedural?) then (yes)
                    switch (InvokeStmt.expression?)
                        case ( isThisInitStmt )
                            :add edge defsToThisObject;
                        case ( isParameterInitStmt ) 
                            :add edge defsToFormalArgs;
                        case ( isAssignReturnLocalStmt )
                            :add edge defsToCallSite;
                        case ( isReturnStringStmt )
                            :add edge stringToCallSite;
                    endswitch
                else (no)
    
                endif

        endswitch
    

    endwhile
    ->is empty;
end group

:return cd;

end






@enduml

PlantUML version 1.2022.7(Mon Aug 22 14:01:30 BRT 2022)
(GPL source distribution)
Java Runtime: OpenJDK Runtime Environment
JVM: OpenJDK 64-Bit Server VM
Default Encoding: UTF-8
Language: en
Country: US
--></g></svg>